<mxfile host="app.diagrams.net" modified="2023-07-19T12:47:19.308Z" agent="Mozilla/5.0 (Windows NT 10.0; Win64; x64) AppleWebKit/537.36 (KHTML, like Gecko) Chrome/114.0.0.0 Safari/537.36" etag="3zruuKwbTm8M0Dzxhi1k" version="21.6.2" type="device">
  <diagram name="Page-1" id="JTAigWo1zR2mtHdfbirj">
    <mxGraphModel dx="1100" dy="565" grid="1" gridSize="10" guides="1" tooltips="1" connect="1" arrows="1" fold="1" page="1" pageScale="1" pageWidth="1169" pageHeight="1654" math="0" shadow="0">
      <root>
        <mxCell id="0" />
        <mxCell id="1" parent="0" />
        <mxCell id="mm00w3MlaHaHKfsJxOdM-8" value="left event" style="edgeStyle=orthogonalEdgeStyle;rounded=0;orthogonalLoop=1;jettySize=auto;html=1;exitX=0;exitY=0.75;exitDx=0;exitDy=0;entryX=1;entryY=0.75;entryDx=0;entryDy=0;" edge="1" parent="1" source="mm00w3MlaHaHKfsJxOdM-1" target="mm00w3MlaHaHKfsJxOdM-3">
          <mxGeometry relative="1" as="geometry" />
        </mxCell>
        <mxCell id="mm00w3MlaHaHKfsJxOdM-9" value="right event" style="edgeStyle=orthogonalEdgeStyle;rounded=0;orthogonalLoop=1;jettySize=auto;html=1;exitX=1;exitY=0.25;exitDx=0;exitDy=0;entryX=0;entryY=0.25;entryDx=0;entryDy=0;" edge="1" parent="1" source="mm00w3MlaHaHKfsJxOdM-1" target="mm00w3MlaHaHKfsJxOdM-2">
          <mxGeometry relative="1" as="geometry" />
        </mxCell>
        <mxCell id="mm00w3MlaHaHKfsJxOdM-21" value="wait" style="edgeStyle=orthogonalEdgeStyle;rounded=0;orthogonalLoop=1;jettySize=auto;html=1;exitX=0.25;exitY=1;exitDx=0;exitDy=0;entryX=0.25;entryY=0;entryDx=0;entryDy=0;" edge="1" parent="1" source="mm00w3MlaHaHKfsJxOdM-1" target="mm00w3MlaHaHKfsJxOdM-5">
          <mxGeometry relative="1" as="geometry" />
        </mxCell>
        <mxCell id="mm00w3MlaHaHKfsJxOdM-1" value="NO LIGHT" style="rounded=0;whiteSpace=wrap;html=1;fillColor=#fff2cc;strokeColor=#d6b656;" vertex="1" parent="1">
          <mxGeometry x="410" y="90" width="120" height="60" as="geometry" />
        </mxCell>
        <mxCell id="mm00w3MlaHaHKfsJxOdM-10" value="left event" style="edgeStyle=orthogonalEdgeStyle;rounded=0;orthogonalLoop=1;jettySize=auto;html=1;exitX=0;exitY=0.75;exitDx=0;exitDy=0;entryX=1;entryY=0.75;entryDx=0;entryDy=0;" edge="1" parent="1" source="mm00w3MlaHaHKfsJxOdM-2" target="mm00w3MlaHaHKfsJxOdM-1">
          <mxGeometry relative="1" as="geometry" />
        </mxCell>
        <mxCell id="mm00w3MlaHaHKfsJxOdM-11" value="wait" style="edgeStyle=orthogonalEdgeStyle;rounded=0;orthogonalLoop=1;jettySize=auto;html=1;exitX=0.25;exitY=1;exitDx=0;exitDy=0;entryX=0.25;entryY=0;entryDx=0;entryDy=0;" edge="1" parent="1" source="mm00w3MlaHaHKfsJxOdM-2" target="mm00w3MlaHaHKfsJxOdM-6">
          <mxGeometry relative="1" as="geometry" />
        </mxCell>
        <mxCell id="mm00w3MlaHaHKfsJxOdM-2" value="RIGHT LIGHT" style="rounded=0;whiteSpace=wrap;html=1;fillColor=#fff2cc;strokeColor=#d6b656;" vertex="1" parent="1">
          <mxGeometry x="640" y="90" width="120" height="60" as="geometry" />
        </mxCell>
        <mxCell id="mm00w3MlaHaHKfsJxOdM-7" value="right event" style="edgeStyle=orthogonalEdgeStyle;rounded=0;orthogonalLoop=1;jettySize=auto;html=1;exitX=1;exitY=0.25;exitDx=0;exitDy=0;entryX=0;entryY=0.25;entryDx=0;entryDy=0;" edge="1" parent="1" source="mm00w3MlaHaHKfsJxOdM-3" target="mm00w3MlaHaHKfsJxOdM-1">
          <mxGeometry relative="1" as="geometry" />
        </mxCell>
        <mxCell id="mm00w3MlaHaHKfsJxOdM-16" value="wait" style="edgeStyle=orthogonalEdgeStyle;rounded=0;orthogonalLoop=1;jettySize=auto;html=1;exitX=0.75;exitY=1;exitDx=0;exitDy=0;entryX=0.75;entryY=0;entryDx=0;entryDy=0;" edge="1" parent="1" source="mm00w3MlaHaHKfsJxOdM-3" target="mm00w3MlaHaHKfsJxOdM-4">
          <mxGeometry relative="1" as="geometry" />
        </mxCell>
        <mxCell id="mm00w3MlaHaHKfsJxOdM-3" value="LEFT LIGHT" style="rounded=0;whiteSpace=wrap;html=1;fillColor=#fff2cc;strokeColor=#d6b656;" vertex="1" parent="1">
          <mxGeometry x="180" y="90" width="120" height="60" as="geometry" />
        </mxCell>
        <mxCell id="mm00w3MlaHaHKfsJxOdM-15" value="wait&amp;nbsp;" style="edgeStyle=orthogonalEdgeStyle;rounded=0;orthogonalLoop=1;jettySize=auto;html=1;exitX=0.25;exitY=0;exitDx=0;exitDy=0;entryX=0.25;entryY=1;entryDx=0;entryDy=0;" edge="1" parent="1" source="mm00w3MlaHaHKfsJxOdM-4" target="mm00w3MlaHaHKfsJxOdM-3">
          <mxGeometry relative="1" as="geometry" />
        </mxCell>
        <mxCell id="mm00w3MlaHaHKfsJxOdM-17" value="right event" style="edgeStyle=orthogonalEdgeStyle;rounded=0;orthogonalLoop=1;jettySize=auto;html=1;exitX=1;exitY=0.25;exitDx=0;exitDy=0;entryX=0;entryY=0.25;entryDx=0;entryDy=0;" edge="1" parent="1" source="mm00w3MlaHaHKfsJxOdM-4" target="mm00w3MlaHaHKfsJxOdM-5">
          <mxGeometry relative="1" as="geometry" />
        </mxCell>
        <mxCell id="mm00w3MlaHaHKfsJxOdM-4" value="FLASH+LEFT LIGHT" style="rounded=0;whiteSpace=wrap;html=1;fillColor=#fff2cc;strokeColor=#d6b656;" vertex="1" parent="1">
          <mxGeometry x="180" y="250" width="120" height="60" as="geometry" />
        </mxCell>
        <mxCell id="mm00w3MlaHaHKfsJxOdM-18" value="left event" style="edgeStyle=orthogonalEdgeStyle;rounded=0;orthogonalLoop=1;jettySize=auto;html=1;exitX=0;exitY=0.75;exitDx=0;exitDy=0;entryX=1;entryY=0.75;entryDx=0;entryDy=0;" edge="1" parent="1" source="mm00w3MlaHaHKfsJxOdM-5" target="mm00w3MlaHaHKfsJxOdM-4">
          <mxGeometry relative="1" as="geometry" />
        </mxCell>
        <mxCell id="mm00w3MlaHaHKfsJxOdM-19" value="right event" style="edgeStyle=orthogonalEdgeStyle;rounded=0;orthogonalLoop=1;jettySize=auto;html=1;exitX=1;exitY=0.25;exitDx=0;exitDy=0;entryX=0;entryY=0.25;entryDx=0;entryDy=0;" edge="1" parent="1" source="mm00w3MlaHaHKfsJxOdM-5" target="mm00w3MlaHaHKfsJxOdM-6">
          <mxGeometry relative="1" as="geometry" />
        </mxCell>
        <mxCell id="mm00w3MlaHaHKfsJxOdM-22" value="wait" style="edgeStyle=orthogonalEdgeStyle;rounded=0;orthogonalLoop=1;jettySize=auto;html=1;exitX=0.75;exitY=0;exitDx=0;exitDy=0;entryX=0.75;entryY=1;entryDx=0;entryDy=0;" edge="1" parent="1" source="mm00w3MlaHaHKfsJxOdM-5" target="mm00w3MlaHaHKfsJxOdM-1">
          <mxGeometry relative="1" as="geometry" />
        </mxCell>
        <mxCell id="mm00w3MlaHaHKfsJxOdM-5" value="FLASH" style="rounded=0;whiteSpace=wrap;html=1;fillColor=#fff2cc;strokeColor=#d6b656;" vertex="1" parent="1">
          <mxGeometry x="410" y="250" width="120" height="60" as="geometry" />
        </mxCell>
        <mxCell id="mm00w3MlaHaHKfsJxOdM-12" value="wait" style="edgeStyle=orthogonalEdgeStyle;rounded=0;orthogonalLoop=1;jettySize=auto;html=1;exitX=0.75;exitY=0;exitDx=0;exitDy=0;entryX=0.75;entryY=1;entryDx=0;entryDy=0;" edge="1" parent="1" source="mm00w3MlaHaHKfsJxOdM-6" target="mm00w3MlaHaHKfsJxOdM-2">
          <mxGeometry relative="1" as="geometry" />
        </mxCell>
        <mxCell id="mm00w3MlaHaHKfsJxOdM-20" value="left event" style="edgeStyle=orthogonalEdgeStyle;rounded=0;orthogonalLoop=1;jettySize=auto;html=1;exitX=0;exitY=0.75;exitDx=0;exitDy=0;entryX=1;entryY=0.75;entryDx=0;entryDy=0;" edge="1" parent="1" source="mm00w3MlaHaHKfsJxOdM-6" target="mm00w3MlaHaHKfsJxOdM-5">
          <mxGeometry relative="1" as="geometry" />
        </mxCell>
        <mxCell id="mm00w3MlaHaHKfsJxOdM-6" value="FALSH+RIGHT LIGHT" style="rounded=0;whiteSpace=wrap;html=1;fillColor=#fff2cc;strokeColor=#d6b656;" vertex="1" parent="1">
          <mxGeometry x="640" y="250" width="120" height="60" as="geometry" />
        </mxCell>
        <mxCell id="mm00w3MlaHaHKfsJxOdM-13" value="right event" style="edgeStyle=orthogonalEdgeStyle;rounded=0;orthogonalLoop=1;jettySize=auto;html=1;exitX=1;exitY=0.75;exitDx=0;exitDy=0;entryX=0.5;entryY=0;entryDx=0;entryDy=0;" edge="1" parent="1" source="mm00w3MlaHaHKfsJxOdM-2" target="mm00w3MlaHaHKfsJxOdM-2">
          <mxGeometry relative="1" as="geometry">
            <Array as="points">
              <mxPoint x="780" y="135" />
              <mxPoint x="780" y="50" />
              <mxPoint x="700" y="50" />
            </Array>
          </mxGeometry>
        </mxCell>
        <mxCell id="mm00w3MlaHaHKfsJxOdM-14" value="left event" style="edgeStyle=orthogonalEdgeStyle;rounded=0;orthogonalLoop=1;jettySize=auto;html=1;exitX=0;exitY=0.75;exitDx=0;exitDy=0;entryX=0.5;entryY=0;entryDx=0;entryDy=0;" edge="1" parent="1" source="mm00w3MlaHaHKfsJxOdM-3" target="mm00w3MlaHaHKfsJxOdM-3">
          <mxGeometry relative="1" as="geometry">
            <Array as="points">
              <mxPoint x="160" y="135" />
              <mxPoint x="160" y="40" />
              <mxPoint x="240" y="40" />
            </Array>
          </mxGeometry>
        </mxCell>
        <mxCell id="mm00w3MlaHaHKfsJxOdM-25" style="edgeStyle=orthogonalEdgeStyle;rounded=0;orthogonalLoop=1;jettySize=auto;html=1;exitX=0.5;exitY=1;exitDx=0;exitDy=0;" edge="1" parent="1">
          <mxGeometry relative="1" as="geometry">
            <mxPoint x="240" y="370" as="sourcePoint" />
            <mxPoint x="240" y="370" as="targetPoint" />
          </mxGeometry>
        </mxCell>
        <mxCell id="mm00w3MlaHaHKfsJxOdM-26" value="system events" style="swimlane;fontStyle=0;childLayout=stackLayout;horizontal=1;startSize=30;horizontalStack=0;resizeParent=1;resizeParentMax=0;resizeLast=0;collapsible=1;marginBottom=0;whiteSpace=wrap;html=1;fillColor=#dae8fc;strokeColor=#6c8ebf;" vertex="1" parent="1">
          <mxGeometry x="170" y="360" width="140" height="150" as="geometry" />
        </mxCell>
        <mxCell id="mm00w3MlaHaHKfsJxOdM-27" value="right event" style="text;strokeColor=#d6b656;fillColor=#fff2cc;align=center;verticalAlign=middle;spacingLeft=4;spacingRight=4;overflow=hidden;points=[[0,0.5],[1,0.5]];portConstraint=eastwest;rotatable=0;whiteSpace=wrap;html=1;" vertex="1" parent="mm00w3MlaHaHKfsJxOdM-26">
          <mxGeometry y="30" width="140" height="30" as="geometry" />
        </mxCell>
        <mxCell id="mm00w3MlaHaHKfsJxOdM-28" value="left event" style="text;strokeColor=#d6b656;fillColor=#fff2cc;align=center;verticalAlign=middle;spacingLeft=4;spacingRight=4;overflow=hidden;points=[[0,0.5],[1,0.5]];portConstraint=eastwest;rotatable=0;whiteSpace=wrap;html=1;" vertex="1" parent="mm00w3MlaHaHKfsJxOdM-26">
          <mxGeometry y="60" width="140" height="30" as="geometry" />
        </mxCell>
        <mxCell id="mm00w3MlaHaHKfsJxOdM-29" value="wait event" style="text;strokeColor=#d6b656;fillColor=#fff2cc;align=center;verticalAlign=middle;spacingLeft=4;spacingRight=4;overflow=hidden;points=[[0,0.5],[1,0.5]];portConstraint=eastwest;rotatable=0;whiteSpace=wrap;html=1;" vertex="1" parent="mm00w3MlaHaHKfsJxOdM-26">
          <mxGeometry y="90" width="140" height="30" as="geometry" />
        </mxCell>
        <mxCell id="mm00w3MlaHaHKfsJxOdM-31" value="MAX_EVENT" style="text;strokeColor=#d6b656;fillColor=#fff2cc;align=center;verticalAlign=middle;spacingLeft=4;spacingRight=4;overflow=hidden;points=[[0,0.5],[1,0.5]];portConstraint=eastwest;rotatable=0;whiteSpace=wrap;html=1;" vertex="1" parent="mm00w3MlaHaHKfsJxOdM-26">
          <mxGeometry y="120" width="140" height="30" as="geometry" />
        </mxCell>
        <mxCell id="mm00w3MlaHaHKfsJxOdM-33" value="system states" style="swimlane;fontStyle=0;childLayout=stackLayout;horizontal=1;startSize=30;horizontalStack=0;resizeParent=1;resizeParentMax=0;resizeLast=0;collapsible=1;marginBottom=0;whiteSpace=wrap;html=1;fillColor=#dae8fc;strokeColor=#6c8ebf;" vertex="1" parent="1">
          <mxGeometry x="370" y="360" width="140" height="240" as="geometry">
            <mxRectangle x="390" y="360" width="110" height="30" as="alternateBounds" />
          </mxGeometry>
        </mxCell>
        <mxCell id="mm00w3MlaHaHKfsJxOdM-34" value="left light" style="text;strokeColor=#d6b656;fillColor=#fff2cc;align=center;verticalAlign=middle;spacingLeft=4;spacingRight=4;overflow=hidden;points=[[0,0.5],[1,0.5]];portConstraint=eastwest;rotatable=0;whiteSpace=wrap;html=1;" vertex="1" parent="mm00w3MlaHaHKfsJxOdM-33">
          <mxGeometry y="30" width="140" height="30" as="geometry" />
        </mxCell>
        <mxCell id="mm00w3MlaHaHKfsJxOdM-35" value="right light" style="text;strokeColor=#d6b656;fillColor=#fff2cc;align=center;verticalAlign=middle;spacingLeft=4;spacingRight=4;overflow=hidden;points=[[0,0.5],[1,0.5]];portConstraint=eastwest;rotatable=0;whiteSpace=wrap;html=1;" vertex="1" parent="mm00w3MlaHaHKfsJxOdM-33">
          <mxGeometry y="60" width="140" height="30" as="geometry" />
        </mxCell>
        <mxCell id="mm00w3MlaHaHKfsJxOdM-36" value="flash" style="text;strokeColor=#d6b656;fillColor=#fff2cc;align=center;verticalAlign=middle;spacingLeft=4;spacingRight=4;overflow=hidden;points=[[0,0.5],[1,0.5]];portConstraint=eastwest;rotatable=0;whiteSpace=wrap;html=1;" vertex="1" parent="mm00w3MlaHaHKfsJxOdM-33">
          <mxGeometry y="90" width="140" height="30" as="geometry" />
        </mxCell>
        <mxCell id="mm00w3MlaHaHKfsJxOdM-37" value="no light" style="text;strokeColor=#d6b656;fillColor=#fff2cc;align=center;verticalAlign=middle;spacingLeft=4;spacingRight=4;overflow=hidden;points=[[0,0.5],[1,0.5]];portConstraint=eastwest;rotatable=0;whiteSpace=wrap;html=1;" vertex="1" parent="mm00w3MlaHaHKfsJxOdM-33">
          <mxGeometry y="120" width="140" height="30" as="geometry" />
        </mxCell>
        <mxCell id="mm00w3MlaHaHKfsJxOdM-38" value="flash + right light" style="text;strokeColor=#d6b656;fillColor=#fff2cc;align=center;verticalAlign=middle;spacingLeft=4;spacingRight=4;overflow=hidden;points=[[0,0.5],[1,0.5]];portConstraint=eastwest;rotatable=0;whiteSpace=wrap;html=1;" vertex="1" parent="mm00w3MlaHaHKfsJxOdM-33">
          <mxGeometry y="150" width="140" height="30" as="geometry" />
        </mxCell>
        <mxCell id="mm00w3MlaHaHKfsJxOdM-39" value="flash + left light" style="text;strokeColor=#d6b656;fillColor=#fff2cc;align=center;verticalAlign=middle;spacingLeft=4;spacingRight=4;overflow=hidden;points=[[0,0.5],[1,0.5]];portConstraint=eastwest;rotatable=0;whiteSpace=wrap;html=1;" vertex="1" parent="mm00w3MlaHaHKfsJxOdM-33">
          <mxGeometry y="180" width="140" height="30" as="geometry" />
        </mxCell>
        <mxCell id="mm00w3MlaHaHKfsJxOdM-40" value="MAX_STATE" style="text;strokeColor=#d6b656;fillColor=#fff2cc;align=center;verticalAlign=middle;spacingLeft=4;spacingRight=4;overflow=hidden;points=[[0,0.5],[1,0.5]];portConstraint=eastwest;rotatable=0;whiteSpace=wrap;html=1;" vertex="1" parent="mm00w3MlaHaHKfsJxOdM-33">
          <mxGeometry y="210" width="140" height="30" as="geometry" />
        </mxCell>
        <mxCell id="mm00w3MlaHaHKfsJxOdM-41" value="&lt;div style=&quot;direction: rtl;&quot;&gt;&lt;span style=&quot;background-color: initial;&quot;&gt;CAR SIGNAL&lt;/span&gt;&lt;/div&gt;" style="rounded=1;whiteSpace=wrap;html=1;fillColor=#d5e8d4;strokeColor=#82b366;" vertex="1" parent="1">
          <mxGeometry x="410" width="120" height="60" as="geometry" />
        </mxCell>
        <mxCell id="mm00w3MlaHaHKfsJxOdM-43" value="Hardware Components" style="swimlane;fontStyle=0;childLayout=stackLayout;horizontal=1;startSize=30;horizontalStack=0;resizeParent=1;resizeParentMax=0;resizeLast=0;collapsible=1;marginBottom=0;whiteSpace=wrap;html=1;fillColor=#dae8fc;strokeColor=#6c8ebf;" vertex="1" parent="1">
          <mxGeometry x="580" y="360" width="160" height="150" as="geometry" />
        </mxCell>
        <mxCell id="mm00w3MlaHaHKfsJxOdM-44" value="Atmega32 MCU" style="text;strokeColor=#d6b656;fillColor=#fff2cc;align=center;verticalAlign=middle;spacingLeft=4;spacingRight=4;overflow=hidden;points=[[0,0.5],[1,0.5]];portConstraint=eastwest;rotatable=0;whiteSpace=wrap;html=1;" vertex="1" parent="mm00w3MlaHaHKfsJxOdM-43">
          <mxGeometry y="30" width="160" height="30" as="geometry" />
        </mxCell>
        <mxCell id="mm00w3MlaHaHKfsJxOdM-45" value="2x LEDs" style="text;strokeColor=#d6b656;fillColor=#fff2cc;align=center;verticalAlign=middle;spacingLeft=4;spacingRight=4;overflow=hidden;points=[[0,0.5],[1,0.5]];portConstraint=eastwest;rotatable=0;whiteSpace=wrap;html=1;" vertex="1" parent="mm00w3MlaHaHKfsJxOdM-43">
          <mxGeometry y="60" width="160" height="30" as="geometry" />
        </mxCell>
        <mxCell id="mm00w3MlaHaHKfsJxOdM-46" value="3x Push Buttons" style="text;strokeColor=#d6b656;fillColor=#fff2cc;align=center;verticalAlign=middle;spacingLeft=4;spacingRight=4;overflow=hidden;points=[[0,0.5],[1,0.5]];portConstraint=eastwest;rotatable=0;whiteSpace=wrap;html=1;" vertex="1" parent="mm00w3MlaHaHKfsJxOdM-43">
          <mxGeometry y="90" width="160" height="30" as="geometry" />
        </mxCell>
        <mxCell id="mm00w3MlaHaHKfsJxOdM-47" value="LCD" style="text;strokeColor=#d6b656;fillColor=#fff2cc;align=center;verticalAlign=middle;spacingLeft=4;spacingRight=4;overflow=hidden;points=[[0,0.5],[1,0.5]];portConstraint=eastwest;rotatable=0;whiteSpace=wrap;html=1;" vertex="1" parent="mm00w3MlaHaHKfsJxOdM-43">
          <mxGeometry y="120" width="160" height="30" as="geometry" />
        </mxCell>
        <mxCell id="mm00w3MlaHaHKfsJxOdM-48" value="right event" style="edgeStyle=orthogonalEdgeStyle;rounded=0;orthogonalLoop=1;jettySize=auto;html=1;exitX=0.5;exitY=1;exitDx=0;exitDy=0;entryX=1;entryY=0.5;entryDx=0;entryDy=0;" edge="1" parent="1" source="mm00w3MlaHaHKfsJxOdM-6" target="mm00w3MlaHaHKfsJxOdM-6">
          <mxGeometry relative="1" as="geometry" />
        </mxCell>
        <mxCell id="mm00w3MlaHaHKfsJxOdM-49" value="left event" style="edgeStyle=orthogonalEdgeStyle;rounded=0;orthogonalLoop=1;jettySize=auto;html=1;exitX=0.5;exitY=1;exitDx=0;exitDy=0;entryX=0;entryY=0.5;entryDx=0;entryDy=0;" edge="1" parent="1" source="mm00w3MlaHaHKfsJxOdM-4" target="mm00w3MlaHaHKfsJxOdM-4">
          <mxGeometry relative="1" as="geometry">
            <Array as="points">
              <mxPoint x="240" y="330" />
              <mxPoint x="150" y="330" />
              <mxPoint x="150" y="280" />
            </Array>
          </mxGeometry>
        </mxCell>
      </root>
    </mxGraphModel>
  </diagram>
</mxfile>
